<?xml version="1.0" encoding="UTF-8" standalone="no"?>
<!-- Created with Inkscape (http://www.inkscape.org/) -->

<svg
   xmlns:dc="http://purl.org/dc/elements/1.1/"
   xmlns:cc="http://creativecommons.org/ns#"
   xmlns:rdf="http://www.w3.org/1999/02/22-rdf-syntax-ns#"
   xmlns:svg="http://www.w3.org/2000/svg"
   xmlns="http://www.w3.org/2000/svg"
   xmlns:sodipodi="http://sodipodi.sourceforge.net/DTD/sodipodi-0.dtd"
   xmlns:inkscape="http://www.inkscape.org/namespaces/inkscape"
   id="svg2"
   version="1.1"
   inkscape:version="0.91 r13725"
   xml:space="preserve"
   width="484.40588"
   height="76.676247"
   viewBox="0 0 484.40588 76.676246"
   sodipodi:docname="domus-logo.svg"><metadata
     id="metadata8"><rdf:RDF><cc:Work
         rdf:about=""><dc:format>image/svg+xml</dc:format><dc:type
           rdf:resource="http://purl.org/dc/dcmitype/StillImage" /><dc:title></dc:title></cc:Work></rdf:RDF></metadata><defs
     id="defs6"><clipPath
       clipPathUnits="userSpaceOnUse"
       id="clipPath18"><path
         d="m 0,0 626.969,0 0,309.087 L 0,309.087 0,0 Z"
         id="path20"
         inkscape:connector-curvature="0" /></clipPath></defs><sodipodi:namedview
     pagecolor="#ffffff"
     bordercolor="#666666"
     borderopacity="1"
     objecttolerance="10"
     gridtolerance="10"
     guidetolerance="10"
     inkscape:pageopacity="0"
     inkscape:pageshadow="2"
     inkscape:window-width="1280"
     inkscape:window-height="724"
     id="namedview4"
     showgrid="false"
     fit-margin-top="0"
     fit-margin-left="0"
     fit-margin-right="0"
     fit-margin-bottom="0"
     inkscape:zoom="1.4142136"
     inkscape:cx="196.13856"
     inkscape:cy="50.852962"
     inkscape:window-x="0"
     inkscape:window-y="1"
     inkscape:window-maximized="1"
     inkscape:current-layer="g16" /><g
     id="g10"
     inkscape:groupmode="layer"
     inkscape:label="domus_vectorial"
     transform="matrix(1.25,0,0,-1.25,-145.9675,241.21)"><g
       id="g12" /><g
       id="g14"><g
         id="g16"
         clip-path="url(#clipPath18)"><path
           d="m 172.863,192.968 5.099,0 0,-61.188 -5.099,0 0,61.188 z m -50.99,-10.198 50.99,0 0,-5.099 -50.99,0 0,5.099 z m -5.099,-45.891 56.089,0 0,-5.099 -56.089,0 0,5.099 z m 0,45.891 5.099,0 0,-45.891 -5.099,0 0,45.891 z"
           style="fill:#888888;fill-opacity:1;fill-rule:nonzero;stroke:none"
           id="path24"
           inkscape:connector-curvature="0" /><path
           d="m 239.15,177.671 5.099,0 0,-45.891 -5.099,0 0,45.891 z m -50.99,-40.792 50.99,0 0,-5.099 -50.99,0 0,5.099 z m 0,45.891 56.089,0 0,-5.099 -56.089,0 0,5.099 z m -5.099,0 5.099,0 0,-50.99 -5.099,0 0,50.99 z"
           style="fill:#888888;fill-opacity:1;fill-rule:nonzero;stroke:none"
           id="path26"
           inkscape:connector-curvature="0" /><path
           d="m 371.724,131.78 -5.099,0 0,50.99 5.099,0 0,-50.99 z m -5.151,44.464 -56.038,-44.464 0.103,6.017 55.987,44.973 -0.052,-6.526 z m -56.038,-44.464 -5.099,0 0,50.99 5.099,0 0,-50.99 z m -5.149,44.464 -48.951,-44.617 -7.087,0.153 56.089,50.99 -0.051,-6.526 z"
           style="fill:#444444;fill-opacity:1;fill-rule:nonzero;stroke:none"
           id="path28"
           inkscape:connector-curvature="0" /><path
           d="m 432.912,182.77 5.099,0 0,-45.891 -5.099,0 0,45.891 z m -50.99,-45.891 56.089,0 0,-5.099 -56.089,0 0,5.099 z m -5.099,45.891 5.099,0 0,-50.99 -5.099,0 0,50.99 z"
           style="fill:#888888;fill-opacity:1;fill-rule:nonzero;stroke:none"
           id="path30"
           inkscape:connector-curvature="0" /><path
           d="m 499.0977,153.7061 5.099,-5.099 0.101,-16.827 -5.098,0 -0.102,21.926 z m 5.099,0 0,-5.099 -61.036,12.34 0,5.098 61.036,-12.339 z m -61.086,-21.926 56.089,0 -56.089,0 z m 0,5.099 56.089,0 0,-5.099 -56.089,0 0,5.099 z m 0,40.792 5.098,0 0.052,-16.724 -5.1,5.098 -0.05,11.626 z m 0,5.099 61.188,0 0,-5.099 -61.188,0 0,5.099 z"
           style="fill:#888888;fill-opacity:1;fill-rule:nonzero;stroke:none"
           id="path32"
           inkscape:connector-curvature="0" /></g></g></g></svg>